<?xml version="1.0" encoding="UTF-8" standalone="no"?>
<!DOCTYPE svg PUBLIC "-//W3C//DTD SVG 1.1//EN" "http://www.w3.org/Graphics/SVG/1.1/DTD/svg11.dtd">
<svg xmlns:xlink="http://www.w3.org/1999/xlink" version="1.1" xmlns="http://www.w3.org/2000/svg"
     preserveAspectRatio="xMidYMid meet" viewBox="206.67312913878 2297.40849140373 590.91345216843 287.3773265481"
     width="584.33" height="280.21">
    <defs>
        <path d="M210.26 2441.09C210.26 2363.71 272.99 2300.99 350.37 2300.99C427.76 2300.99 490.49 2363.71 490.49 2441.09C490.49 2518.48 427.76 2581.2 350.37 2581.2C272.99 2581.2 210.26 2518.48 210.26 2441.09"
              id="d2YAMeL1Od"></path>
        <path d="M350.37 2300.99C427.76 2300.99 490.49 2363.71 490.49 2441.09C490.49 2518.48 427.76 2581.2 350.37 2581.2C272.99 2581.2 210.26 2518.48 210.26 2441.09C210.26 2363.71 272.99 2300.99 350.37 2300.99Z"
              id="d1oaNvwmU"></path>
        <path d="M210.26 2441.09C210.26 2363.71 272.99 2300.99 350.37 2300.99C427.76 2300.99 490.49 2363.71 490.49 2441.09C490.49 2518.48 427.76 2581.2 350.37 2581.2C272.99 2581.2 210.26 2518.48 210.26 2441.09"
              id="acFN4Nsxk"></path>
        <path d="M350.37 2300.99C427.76 2300.99 490.49 2363.71 490.49 2441.09C490.49 2518.48 427.76 2581.2 350.37 2581.2C272.99 2581.2 210.26 2518.48 210.26 2441.09C210.26 2363.71 272.99 2300.99 350.37 2300.99Z"
              id="c4i8IpuqHy"></path>
        <path d="M443.02 2458.41C443.42 2459.56 444.8 2460.81 446.45 2460.4C448.21 2459.78 447.62 2458.03 447.97 2456.7C446.42 2454.11 442.62 2455.55 443.02 2458.41M363.44 2354.4C357.88 2357.78 352.97 2373.53 351.06 2392.2C349.35 2409.02 348.31 2426.48 347.62 2479.29C348.24 2479.2 349.46 2478.98 350.6 2479.29C350.28 2390.2 357.25 2363.7 363.76 2354.37C363.76 2354.37 363.73 2354.21 363.44 2354.4M308.72 2358.58C308.83 2358.55 308.95 2358.52 309.07 2358.49C308.91 2358.54 308.79 2358.58 308.72 2358.58M389.93 2441.47C389.93 2421.74 375.96 2405.28 357.35 2401.44C358.76 2383.11 360.83 2375.4 362.03 2371.19C364.87 2361.08 371.51 2341.19 388.6 2328.79C388.6 2328.79 388.36 2328.94 387.27 2329.12C366.8 2332.74 353.39 2353.76 349.9 2365.36C347.18 2374.44 345.91 2384.43 344.93 2400.8C324.29 2402.87 308.16 2420.29 308.16 2441.47C308.16 2461.94 323.2 2478.82 342.81 2481.84C342.78 2481.99 342.72 2482.15 342.72 2482.31C342.72 2482.43 342.72 2483.42 342.72 2483.54C342.72 2485.58 344.36 2487.23 346.4 2487.23C346.96 2487.23 351.39 2487.23 351.95 2487.23C353.98 2487.23 355.63 2485.58 355.63 2483.54C355.63 2483.42 355.63 2482.43 355.63 2482.31C355.63 2482.13 355.56 2481.98 355.54 2481.8C375.03 2478.68 389.93 2461.85 389.93 2441.47M342.5 2503.66C342.5 2504.41 342.5 2504.82 342.5 2504.91C342.5 2506.97 344.17 2508.65 346.24 2508.65C346.81 2508.65 351.3 2508.65 351.86 2508.65C353.92 2508.65 355.6 2506.97 355.6 2504.91C355.6 2504.78 355.6 2503.79 355.6 2503.66C355.6 2501.6 353.92 2499.91 351.86 2499.91C351.3 2499.91 346.81 2499.91 346.24 2499.91C344.17 2499.91 342.5 2501.6 342.5 2503.66M342.16 2559.84C342.16 2560.64 342.16 2561.09 342.16 2561.18C342.16 2563.4 343.96 2565.19 346.17 2565.19C346.77 2565.19 351.57 2565.19 352.17 2565.19C354.39 2565.19 356.18 2563.4 356.18 2561.18C356.18 2561.04 356.18 2559.98 356.18 2559.84C356.18 2557.64 354.39 2555.85 352.17 2555.85C351.57 2555.85 346.77 2555.85 346.17 2555.85C343.96 2555.85 342.16 2557.64 342.16 2559.84M342.16 2548.38C342.16 2549.19 342.16 2549.64 342.16 2549.72C342.16 2551.93 343.96 2553.73 346.17 2553.73C346.77 2553.73 351.57 2553.73 352.17 2553.73C354.39 2553.73 356.18 2551.93 356.18 2549.72C356.18 2549.59 356.18 2548.52 356.18 2548.38C356.18 2546.17 354.39 2544.38 352.17 2544.38C351.57 2544.38 346.77 2544.38 346.17 2544.38C343.96 2544.38 342.16 2546.17 342.16 2548.38M342.26 2537.18C342.26 2537.97 342.26 2538.41 342.26 2538.5C342.26 2540.68 344.02 2542.45 346.2 2542.45C346.79 2542.45 351.55 2542.45 352.14 2542.45C354.32 2542.45 356.09 2540.68 356.09 2538.5C356.09 2538.37 356.09 2537.31 356.09 2537.18C356.09 2534.99 354.32 2533.23 352.14 2533.23C351.55 2533.23 346.79 2533.23 346.2 2533.23C344.02 2533.23 342.26 2534.99 342.26 2537.18M342.34 2525.99C342.34 2526.76 342.34 2527.19 342.34 2527.28C342.34 2529.43 344.08 2531.16 346.25 2531.16C346.83 2531.16 351.51 2531.16 352.1 2531.16C354.25 2531.16 356 2529.43 356 2527.28C356 2527.15 356 2526.12 356 2525.99C356 2523.82 354.25 2522.07 352.1 2522.07C351.51 2522.07 346.83 2522.07 346.25 2522.07C344.08 2522.07 342.34 2523.82 342.34 2525.99M342.44 2514.78C342.44 2515.54 342.44 2515.97 342.44 2516.05C342.44 2518.19 344.16 2519.92 346.29 2519.92C346.87 2519.92 351.48 2519.92 352.05 2519.92C354.18 2519.92 355.91 2518.19 355.91 2516.05C355.91 2515.93 355.91 2514.91 355.91 2514.78C355.91 2512.64 354.18 2510.93 352.05 2510.93C351.48 2510.93 346.87 2510.93 346.29 2510.93C344.16 2510.93 342.44 2512.64 342.44 2514.78M342.49 2492.74C342.49 2493.49 342.49 2493.9 342.49 2493.99C342.49 2496.05 344.17 2497.72 346.24 2497.72C346.8 2497.72 351.3 2497.72 351.86 2497.72C353.92 2497.72 355.6 2496.05 355.6 2493.99C355.6 2493.86 355.6 2492.87 355.6 2492.74C355.6 2490.67 353.92 2488.99 351.86 2488.99C351.3 2488.99 346.8 2488.99 346.24 2488.99C344.17 2488.99 342.49 2490.67 342.49 2492.74M415.82 2525.71C413.71 2524.2 411.14 2522.31 408.44 2522.39C407.01 2523.2 404.71 2524 404.35 2525.66C405.46 2527.92 409.46 2524.88 410.72 2526.49C408.67 2527.56 408.12 2528.5 405.5 2528.35C403.06 2530.78 407.36 2530.54 407.94 2531.76C409.72 2532.22 412.86 2532.21 414.02 2530.88C414.53 2529.52 417.12 2527.62 415.82 2525.71M409.05 2535C407.88 2533.18 405.91 2531.01 403.64 2531.15C403.02 2532.3 404.05 2533.81 404.6 2534.94C404.69 2535.7 403.82 2535.78 403.43 2536.15C403.23 2534.33 401.16 2534.12 401.67 2531.91C399.91 2530.56 399.83 2532.86 398.14 2532.29C398.24 2532.18 398.33 2531.95 398.55 2532.02C398.69 2530.39 398.17 2529.59 396.58 2529.86C394.46 2532.26 394.67 2535.26 391.59 2536.69C392.37 2538.01 393.27 2538.24 395.06 2537.82C397.1 2536.75 396.82 2534.18 398.22 2533.05C398.09 2533.81 398.93 2535.56 397.68 2536.02C397.56 2537.88 397.74 2540.46 399.15 2541.61C400.91 2541.73 402.21 2543.76 404.19 2543.12C406.68 2541.11 409.8 2538.92 409.05 2535M368.74 2532.16C370.74 2533.26 373.41 2533.52 376.2 2532.88C380.13 2530.56 373.52 2531.52 374.14 2529.15C374.9 2529.18 376.18 2528.58 376.41 2529.77C377.39 2529.68 378.36 2529.57 377.79 2528.3C375.41 2525.71 373.89 2523.89 369.98 2524.31C368.6 2524.8 367.52 2525.02 367.03 2526.51C366.13 2528.48 368.51 2530.08 368.74 2532.16M396.62 2528.34C396.5 2527.16 397.6 2526.29 397.01 2524.94C395.24 2523.62 394.2 2521.99 391.57 2522.6C391.42 2523.27 389.84 2523.67 390.26 2524.6C392.74 2524.44 394.13 2528.19 396.62 2528.34M387.05 2535.44C383.74 2534.36 384.99 2536.78 384.96 2538.55C383.07 2539.4 384.44 2536.72 383.22 2536.63C382.62 2534.18 381.61 2537.04 380.88 2537.43C380.02 2532.58 377.69 2538.45 375.96 2537.76C376.78 2537.22 376.69 2536.35 377.52 2535.94C378.01 2535.34 378.03 2534.57 377.84 2533.8C374.55 2533.96 370.96 2535.33 369.07 2538.18C368.96 2541.17 368.67 2543.62 370.62 2545.39C372.47 2546.19 373.83 2545.47 375.9 2545.36C378.01 2544.47 379.05 2540.33 379.92 2538.26C381.66 2540.05 376.67 2542.26 382.88 2545.71C384.55 2546.85 387.34 2547.19 389.56 2546.3C389.97 2545.04 391.28 2543.91 391 2542.38C391.79 2539.54 389.42 2536.95 387.05 2535.44M389.66 2530.09C389.33 2532.23 387.21 2530.91 385.88 2531.82C384.99 2532.7 385.85 2533.48 386.14 2534.22C387.78 2535.15 390.88 2536.24 391.88 2534.36C392.35 2532.56 395.35 2531.78 394.37 2529.92C391.65 2528.23 390.33 2525.16 386.62 2526.47C386.08 2527.62 384.56 2527.78 384.74 2529.31C386 2530.84 388.22 2529.04 389.66 2530.09M403.64 2527.02C403.42 2525.3 401.37 2525.5 399.75 2525.5C399.2 2526.69 397.79 2526.91 397.9 2528.32C399.2 2528.97 399.52 2531.35 401.58 2530.48C402.55 2529.42 404.4 2528.97 403.64 2527.02M384.26 2531C384.04 2529.28 381.99 2529.49 380.36 2529.49C379.83 2530.68 378.41 2530.91 378.51 2532.31C379.83 2532.97 380.15 2535.35 382.2 2534.46C383.17 2533.4 385.02 2532.97 384.26 2531M385.91 2519.93C385.65 2517.54 382.68 2517.65 381.54 2516.22C378.6 2516.55 377.26 2518.34 376.18 2520.56C375.63 2523.7 376.98 2525.98 379.06 2527.84C383.38 2528.02 379.2 2525.08 380.97 2523.12C383.05 2523.99 380.69 2528.55 383.77 2527.66C386.47 2526.03 386.44 2522.84 385.91 2519.93M406.76 2520.96C406.71 2520.53 406.66 2520.09 406.62 2519.68C408.63 2518.27 405.52 2516.55 405.42 2515.7C405.38 2515.36 405.34 2514.94 405.31 2514.62C404.18 2514.21 403.07 2513.02 402.14 2512.35C399.55 2511.45 398.27 2514.62 396.35 2515.93C396.55 2516.65 396.31 2517.44 395.68 2517.71C395.72 2520.1 395.44 2523.39 398.24 2524.27C402.33 2525.01 399.85 2520.2 401.38 2519.27C403.35 2520.46 401.24 2523.08 402.9 2524.31C404.18 2524.05 406.02 2522.12 406.76 2520.96M234.91 2452.45C235.25 2454.83 237.19 2454.54 237.63 2456.4C239.68 2457.9 242.37 2459.08 245.1 2458.12C246.38 2457.25 248.56 2456.88 248.14 2454.34C246.57 2454.4 245.33 2454.5 244.1 2453.38C244.9 2451.4 248.85 2454.7 248.65 2451.55C247.17 2449.39 245.06 2445.75 241.58 2446.45C240.83 2447.54 239.19 2446.23 238.99 2447.86C237.78 2448.98 234.68 2449.5 234.91 2452.45M241.01 2466.94C242.24 2468.17 242.16 2469.15 243.44 2470.06C245.59 2470.47 246.64 2468.44 249.09 2468.44C251.81 2466.39 251.38 2461.51 251.12 2458.69C250.05 2457.27 250 2459.94 248.87 2459.39C248.28 2458.38 249.72 2457.2 248.2 2457.04C247.74 2458.27 246.71 2458.43 245.6 2458.44C243.82 2460.23 242.49 2460.21 241.83 2462.53C240.1 2463.42 240.93 2465.59 241.01 2466.94M251.48 2450.74C251.44 2449.72 251.44 2447.95 252.1 2447.39C253.81 2448.39 251.73 2452.34 255.03 2450.83C255.38 2451.36 254.94 2451.94 254.94 2452.5C256.59 2452.57 258.53 2449.94 259.19 2452.4C257.78 2452.8 256.8 2453.29 255.45 2453.93C257.66 2455.22 253.89 2455.76 254.83 2457.26C255.26 2458.56 258.09 2459.54 256.22 2461.19C254.14 2460.36 255 2456.95 252.55 2458.17C251.37 2460.96 252.35 2463.48 253.79 2465.87C255.28 2468.04 257.86 2468.52 260.05 2468.14C261.63 2467.43 263.51 2467.55 263.49 2465.21C262.68 2464.74 264.33 2464.26 263.65 2463.12C263.43 2461.32 262.44 2458.89 260.89 2457.61C260.07 2456.68 258.02 2457.52 257.55 2455.88C260.64 2456 264.61 2457.39 266.74 2454.9C267.96 2453.12 269.16 2451.46 269.19 2448.91C267.39 2447.24 265.97 2445.86 263.38 2446.04C260.74 2445.22 258.69 2447.3 256.91 2449.08C256.76 2449.94 255.82 2450.21 255.17 2451.2C255.03 2448.39 259.25 2446.05 256.9 2443.17C254.67 2441.98 252.63 2437.37 249.93 2440.53C248.53 2441.5 247.45 2441.86 246.45 2443.68C245.7 2447.1 248.85 2448.15 249.34 2450.89C250.13 2450.82 250.98 2451.65 251.48 2450.74M250.17 2456.62C251.49 2457.31 252.96 2456.57 253.57 2455.69C254.56 2453.31 251.62 2451.2 249.7 2453.08C249.7 2454.31 248.78 2455.69 250.17 2456.62M255.09 2481C255.2 2481 255.43 2480.99 255.66 2480.99C257.36 2485.99 258.43 2491.68 261.56 2496.13C261.84 2500.49 265.81 2502.96 266.74 2506.55C269.62 2508.92 270.43 2512.85 272.66 2515.44C272.24 2516.44 274.12 2517.71 275.33 2518.27C276.24 2520.1 277.96 2517.9 279.27 2517.76C279.67 2515.13 276.05 2515.18 276.78 2512.22C277.03 2507.07 275.76 2501.94 277.67 2497.75C277.66 2496.66 277.74 2495.35 276.53 2494.91C274.99 2494.84 275.24 2496.36 274.71 2497.24C273.22 2500.32 274.7 2504.48 273.32 2507.55C271.56 2506.92 271.31 2504.75 270.42 2503.43C269.52 2502.24 267.75 2500.74 267.72 2499.2C266.73 2498.34 266.16 2496.71 265.49 2496.06C262.32 2488.55 260.8 2481.79 258.39 2474.16C257.4 2472.96 257.25 2470.67 254.96 2471.03C254.42 2472.47 254.22 2473.22 253.36 2474.24C253.95 2477.07 254.62 2478.16 255.09 2481M284.08 2529.31C285.23 2530.62 288.37 2530.63 290.14 2530.2C290.72 2528.94 295.02 2529.21 292.58 2526.77C289.97 2526.93 289.41 2525.99 287.37 2524.9C288.62 2523.31 292.63 2526.34 293.73 2524.08C293.38 2522.42 291.08 2521.63 289.66 2520.84C286.96 2520.75 284.37 2522.62 282.26 2524.13C280.97 2526.04 283.57 2527.96 284.08 2529.31M293.88 2541.54C295.87 2542.19 297.18 2540.17 298.94 2540.02C300.35 2538.87 300.53 2536.29 300.41 2534.45C299.14 2533.99 299.99 2532.24 299.86 2531.46C301.26 2532.59 300.98 2535.16 303.01 2536.26C304.82 2536.66 305.72 2536.44 306.5 2535.12C303.42 2533.7 303.62 2530.68 301.51 2528.29C299.92 2528.01 299.4 2528.82 299.54 2530.46C299.76 2530.37 299.85 2530.58 299.95 2530.71C298.25 2531.3 298.17 2529.01 296.42 2530.33C296.93 2532.57 294.85 2532.76 294.65 2534.58C294.26 2534.2 293.4 2534.11 293.48 2533.37C294.04 2532.24 295.07 2530.74 294.44 2529.58C292.17 2529.43 290.21 2531.61 289.04 2533.43C288.28 2537.36 291.41 2539.52 293.88 2541.54M307.09 2540.82C306.81 2542.32 308.12 2543.45 308.54 2544.72C310.74 2545.63 313.54 2545.26 315.2 2544.13C321.42 2540.67 316.43 2538.49 318.16 2536.69C319.04 2538.77 320.07 2542.89 322.18 2543.78C324.26 2543.91 325.61 2544.6 327.46 2543.8C329.42 2542.04 329.14 2539.59 329.02 2536.59C327.12 2533.74 323.54 2532.37 320.25 2532.24C320.04 2532.98 320.08 2533.75 320.56 2534.35C321.4 2534.79 321.3 2535.66 322.13 2536.19C320.4 2536.87 318.07 2531 317.21 2535.86C316.48 2535.44 315.47 2532.59 314.86 2535.06C313.65 2535.15 315.01 2537.82 313.12 2536.96C313.09 2535.2 314.34 2532.8 311.03 2533.87C308.67 2535.38 306.29 2537.99 307.09 2540.82M331.06 2524.93C330.57 2523.43 329.49 2523.21 328.11 2522.74C324.19 2522.31 322.68 2524.12 320.3 2526.72C319.72 2528 320.7 2528.09 321.68 2528.2C321.91 2527.02 323.18 2527.61 323.95 2527.57C324.57 2529.97 317.96 2529.01 321.89 2531.31C324.68 2531.95 327.34 2531.7 329.34 2530.57C329.57 2528.52 331.95 2526.9 331.06 2524.93M307.82 2523.03C308.25 2522.09 306.67 2521.71 306.53 2521.05C303.88 2520.42 302.84 2522.04 301.07 2523.38C300.49 2524.71 301.58 2525.59 301.45 2526.77C303.96 2526.61 305.35 2522.85 307.82 2523.03M315.66 2532.84C317.64 2533.94 318.23 2531.57 319.6 2531.06C319.87 2529.68 318.47 2529.28 318.06 2528.02C316.43 2527.85 314.39 2527.42 313.98 2529.14C313 2531 314.8 2531.64 315.66 2532.84M314.31 2526.07C317.41 2526.97 315.04 2522.41 317.12 2521.53C318.88 2523.49 314.71 2526.46 319.03 2526.27C321.1 2524.39 322.45 2522.12 321.91 2518.97C320.83 2516.78 319.49 2514.97 316.56 2514.64C315.42 2516.05 312.44 2515.97 312.18 2518.35C311.64 2521.28 311.62 2524.47 314.31 2526.07M313.36 2527.73C313.52 2526.21 312 2526.04 311.46 2524.88C307.75 2523.6 306.43 2526.65 303.71 2528.34C302.74 2530.21 305.73 2530.98 306.2 2532.79C307.2 2534.66 310.3 2533.56 311.94 2532.65C312.25 2531.91 313.1 2531.13 312.21 2530.27C310.87 2529.34 308.75 2530.65 308.43 2528.52C309.86 2527.46 312.09 2529.25 313.36 2527.73M295.35 2528.17C296.27 2528.69 297.34 2528.7 298.66 2528.53C299.8 2528.1 300.17 2526.63 299.75 2525.5C299.17 2523.92 296.13 2522.93 295.15 2524.99C294.4 2526 294.91 2527.24 295.35 2528.17M295.18 2522.73C296.84 2521.5 294.73 2518.88 296.71 2517.69C298.23 2518.62 295.75 2523.43 299.85 2522.7C302.65 2521.81 302.36 2518.53 302.4 2516.16C301.78 2515.87 301.54 2515.09 301.74 2514.35C299.82 2513.05 298.54 2509.89 295.94 2510.8C295.01 2511.44 293.9 2512.62 292.78 2513.05C292.74 2513.37 292.69 2513.78 292.66 2514.11C292.57 2514.97 289.46 2516.69 291.46 2518.1C291.42 2518.53 291.37 2518.94 291.32 2519.39C292.07 2520.55 293.91 2522.48 295.18 2522.73M276.08 2487.08C276.39 2488.05 279.43 2486.06 280.44 2485.65C280.78 2487.42 277.72 2490.78 278.2 2492.47C278.57 2492.33 280.57 2491.56 281.13 2490.67C281.96 2491.9 284.56 2492.11 285.81 2491.65C285.48 2493.81 281.81 2492.93 281.02 2495.12C281.66 2495.72 282.3 2494.97 282.77 2495.78C285.19 2496.51 289.62 2495.49 291.31 2497.72C289.93 2498.28 286.93 2498.76 285.71 2498.22C284.48 2498.57 279.9 2498.22 279.33 2499.54C284.87 2503.1 288.86 2503.15 293.35 2503.5C293.35 2503.5 300.25 2503.94 302.28 2502.89C301.82 2498.83 302.7 2497.64 297.72 2494.87C294.65 2493.75 290.96 2494.37 288.39 2494.39C288.5 2493.5 293.24 2494.25 295.71 2491.98C298.14 2489.98 299.1 2488.87 299.42 2486.34C299.54 2483.97 299.24 2481.59 298.57 2480.63C295.27 2479.09 290.68 2479.04 289.25 2479.81C287.18 2480.28 282.62 2486.61 282.62 2486.61C283.34 2483.81 285.38 2479.68 284.4 2477.33C284.59 2476.64 278.69 2470.68 277.23 2472.53C272.78 2477.59 274.02 2481.58 273.87 2487.31C275.7 2495.76 273.84 2485.65 276.08 2487.08M458.89 2452.49C458.88 2450.83 457.1 2451.96 456.46 2450.79C453.09 2449.71 450.6 2453.08 448.87 2455.07C448.34 2458.18 452.62 2455.35 453.2 2457.39C451.86 2458.37 450.63 2458.12 449.08 2457.91C448.37 2460.37 450.51 2460.99 451.68 2461.99C454.29 2463.24 457.08 2462.38 459.3 2461.11C459.93 2459.33 461.83 2459.85 462.44 2457.49C463 2454.6 459.98 2453.72 458.89 2452.49M454.44 2466.74C454.04 2464.36 452.72 2464.24 451.15 2462.25C450.04 2462.12 449.03 2461.87 448.72 2460.57C447.18 2460.57 448.49 2461.9 447.79 2462.82C446.62 2463.24 446.85 2460.59 445.64 2461.89C445.07 2464.67 444.08 2469.46 446.56 2471.8C449 2472.06 449.81 2474.21 452 2474.05C453.37 2473.3 453.41 2472.3 454.76 2471.22C454.99 2469.89 456.05 2467.83 454.44 2466.74M448.27 2454.33C449.07 2451.66 452.31 2450.98 451.95 2447.49C451.15 2445.58 450.13 2445.1 448.84 2443.98C446.51 2440.53 443.97 2444.89 441.62 2445.83C438.96 2448.44 442.89 2451.22 442.44 2453.99C441.92 2452.94 441 2452.55 440.94 2451.69C439.37 2449.71 437.56 2447.44 434.86 2447.95C432.3 2447.47 430.74 2448.69 428.76 2450.16C428.5 2452.71 429.51 2454.5 430.53 2456.39C432.37 2459.11 436.47 2458.17 439.57 2458.38C438.91 2459.96 436.96 2458.89 436.04 2459.72C434.36 2460.83 433.1 2463.12 432.67 2464.91C431.89 2465.97 433.46 2466.61 432.6 2467.01C432.34 2469.32 434.21 2469.41 435.69 2470.27C437.83 2470.9 440.45 2470.72 442.17 2468.73C443.88 2466.52 445.14 2464.12 444.26 2461.21C441.97 2459.73 442.44 2463.22 440.28 2463.82C438.61 2461.95 441.53 2461.31 442.1 2460.05C443.2 2458.66 439.5 2457.72 441.86 2456.67C440.59 2455.89 439.66 2455.3 438.32 2454.74C439.24 2452.36 440.87 2455.2 442.53 2455.31C442.59 2454.76 442.22 2454.13 442.62 2453.67C445.73 2455.51 444.1 2451.37 445.91 2450.55C446.51 2451.18 446.3 2452.94 446.16 2453.96C446.55 2454.9 447.49 2454.19 448.27 2454.33M444.99 2476.05C444.15 2475.04 443.94 2474.27 443.45 2472.83C441.16 2472.44 440.97 2474.73 439.96 2475.91C437.45 2483.49 435.82 2490.22 432.54 2497.69C431.87 2498.33 431.27 2499.97 430.26 2500.81C430.21 2502.33 428.42 2503.82 427.5 2504.99C426.6 2506.28 426.32 2508.47 424.55 2509.07C423.21 2505.98 424.76 2501.85 423.32 2498.75C422.78 2497.86 423.05 2496.32 421.52 2496.38C420.3 2496.8 420.36 2498.11 420.34 2499.2C422.19 2503.41 420.84 2508.54 421.02 2513.68C421.7 2516.65 418.08 2516.55 418.45 2519.18C419.75 2519.34 421.45 2521.57 422.38 2519.74C423.6 2519.22 425.5 2517.98 425.08 2516.97C427.35 2514.4 428.22 2510.49 431.14 2508.17C432.12 2504.57 436.14 2502.18 436.47 2497.81C439.66 2493.41 440.82 2487.74 442.61 2482.77C442.83 2482.77 443.05 2482.78 443.16 2482.79C443.68 2479.94 444.36 2478.86 444.99 2476.05M426.2 2489.26C427.06 2483.61 428.98 2479.91 425.5 2474.11C424.38 2472.04 417.52 2476.88 417.59 2477.59C416.21 2479.71 417.49 2484.16 417.7 2487.06C417.7 2487.06 414.34 2479.99 412.38 2479.17C411.1 2478.17 406.57 2477.39 403.05 2478.33C402.22 2479.17 401.52 2481.47 401.22 2483.82C401.07 2486.35 401.83 2487.62 403.87 2490.02C405.9 2492.68 410.71 2492.8 410.66 2493.68C408.13 2493.19 404.61 2491.95 401.38 2492.51C396 2494.35 396.64 2495.68 395.48 2499.61C397.31 2500.97 404.17 2501.77 404.17 2501.77C408.64 2502.23 412.59 2502.86 418.66 2500.34C418.33 2498.94 413.76 2498.51 412.61 2497.93C411.32 2498.24 408.45 2497.24 407.19 2496.46C409.23 2494.55 413.43 2496.33 415.94 2496.04C416.54 2495.34 417.04 2496.18 417.77 2495.7C417.38 2493.41 413.62 2493.64 413.68 2491.43C414.83 2492.11 417.43 2492.36 418.45 2491.31C418.85 2492.26 420.68 2493.4 421.02 2493.6C421.78 2491.99 419.37 2488.17 420.02 2486.48C420.93 2487.08 423.59 2489.57 424.08 2488.64C426.52 2487.64 422.9 2497.25 426.2 2489.26M463.93 2400.66C460.52 2398.37 455.79 2397.31 452.54 2398.85C454.18 2396.72 455.39 2397.84 456.2 2395.16C456.21 2393.77 455.43 2390.57 452.07 2387.93C443.74 2390.17 444.36 2393.27 444.81 2398.56C444.25 2395.22 443.55 2395.02 442.65 2393.5C442.21 2392.78 437.41 2391.29 435.91 2390.92C432.84 2390.48 434.99 2397.54 435.34 2396.32C434.59 2401.7 435.78 2400.6 437.69 2404.41C439.21 2404.83 440.14 2406.22 442.49 2407.42C444.18 2406.18 439.76 2405.54 440.65 2404.18C441.21 2404.83 442.5 2404.76 443.36 2405.14C442.15 2403.04 442.35 2399.48 443.5 2400.74C445.17 2402.97 445.83 2403.02 446.53 2404.68C448.91 2402.11 451.63 2401.05 453.43 2401.21C453.59 2401.52 448.22 2405.09 448.16 2405.44C447.3 2407.02 453.38 2405.92 453.73 2405.96C452.31 2407.94 448.01 2407.35 448.65 2408.57C451.05 2409.08 455.32 2408.04 458.03 2406.97C459.99 2405.66 463.72 2404.35 463.93 2400.66M385.18 2371.65C389.18 2371.05 394.09 2372.72 396.48 2368.79C396.39 2369.08 397.13 2368.04 393.62 2366.5C398.47 2367.34 392.78 2364.61 393.42 2363.74C393.39 2363.71 399.09 2366.01 396.85 2362.11C397.93 2361.26 399.03 2363.08 400.32 2362.88C401.42 2359.56 401.87 2355.33 399.28 2351.9C396.45 2352.57 392.79 2353.97 394.47 2359.2C392.12 2357.68 393.27 2351.68 384.56 2356.63C384.91 2357.71 383.84 2360.09 384.81 2361.61C386.81 2365.42 389.57 2364.45 390.89 2364.91C387.8 2364.73 384.86 2366.74 383.69 2368.46C381.79 2369.87 384.27 2370.8 385.18 2371.65M436.7 2427.7C430.5 2423.45 428.18 2417.07 420.21 2414.31C419.74 2414.05 418.45 2415.12 418.09 2414.21C417.81 2415.23 416.88 2415.61 417.52 2416.95C425.54 2420.12 432.32 2427.38 437.7 2434.2C440.32 2435.34 439.25 2432.73 439.14 2431.31C438.65 2430.28 437.77 2428.85 436.86 2428.79C436.17 2428.56 436.77 2428.14 436.7 2427.7M411.35 2408.86C411.63 2407.83 414.47 2410.81 415.08 2410.49C415.57 2407.88 419.22 2414.83 417.63 2410.22C416.99 2406.19 415.85 2404.14 414.19 2401.83C411.68 2398.7 410.74 2399.1 410.74 2399.1C408.71 2400.96 406.99 2405.93 408.8 2409.61C406.86 2408.73 406.44 2406.85 403.17 2407.21C400.59 2407.48 396.3 2410.93 397.39 2413C399.83 2418.67 401.74 2420.3 409.75 2418.52C407.72 2419.53 404.82 2420.51 403.92 2421.84C402.03 2424.84 404.17 2428.44 405.24 2428.93C411.07 2426.49 414.93 2425.03 417.08 2418.81C415.55 2418.28 414.02 2420.5 412.79 2420.47C412.81 2419.9 414.17 2417.94 414.85 2418.06C416.94 2416.51 412.49 2415.86 411.06 2414.42C410.03 2413.57 413.43 2413.85 415.54 2413.95C415.06 2412.92 412.22 2409.49 411.35 2408.86M398.8 2368.78C399.28 2369.69 399.8 2370.95 400.86 2371.35C405.49 2375.49 410.14 2380.41 414.53 2384.39C414.04 2386.35 416.76 2386.03 416.33 2387.54C411.59 2387.71 406.98 2387.23 402.19 2387.08C402.06 2386.99 398.78 2385.84 397.68 2387.23C397.3 2388.39 398.15 2389.55 398.62 2389.73C399.08 2389.92 410.96 2391.48 417.68 2390.54C421.2 2391.1 422.36 2395.68 424.55 2397.67C425.18 2401.03 428.43 2403.38 428.68 2407.11C431.02 2410.07 431.48 2414.45 433.96 2416.93C434.2 2418.45 434.4 2420.41 435.65 2420.66C436.78 2423.58 436.99 2426.43 439.86 2427.76C439.68 2426.57 439.57 2425.26 440.23 2424.5C439.31 2422.08 438.36 2419.46 437.46 2417.28C436.31 2410.59 431.87 2405.51 429.8 2400.07C427.88 2398.38 426.75 2396 425.75 2393.28C419.94 2390.86 424.52 2383.94 423.98 2379.7C424.18 2377.45 422.98 2373.98 423.32 2372.61C421.82 2370.84 421.2 2373.27 420.46 2374.17C420.6 2378.56 421.9 2382.02 419.55 2385.49C418.94 2384.36 417.63 2384.47 417.53 2383.14C415.55 2383.24 415.53 2379.58 414.45 2380.41C411.92 2376.26 406.66 2374.52 404.96 2370.69C402.92 2370.35 400.72 2364.71 398.8 2368.78M384.9 2399.43C389.76 2398.55 391.88 2395.17 395.52 2390.94C395.2 2391.08 392.45 2392.12 391.46 2392.18C391.46 2392.18 392.48 2391.02 394.01 2390.19C394.81 2389.42 391.95 2389.68 390.17 2388.77C393.24 2388.32 394.83 2387.44 394.51 2386.82C394.79 2387.36 392.49 2386.15 392.49 2386.15C393.18 2384.9 392.67 2384.11 392.2 2383.7C392.2 2383.7 395.54 2385.59 396.09 2385.39C395.26 2383.48 395.19 2380.85 394.51 2379.37C393.57 2376.77 392.08 2375.53 389.89 2373.92C387.93 2375.06 386.65 2377.79 386.6 2378.78C386.56 2379.86 386.78 2382.3 389.93 2383.02C387.73 2383.72 384.86 2379.18 380.28 2386.58C382.4 2393.55 387.76 2390.33 388.92 2390.5C386.46 2391.26 385.21 2392.61 383.98 2394.67C384.18 2395.64 383.76 2399.08 384.9 2399.43M413.64 2368.05C415.28 2369.23 416.5 2371.35 418.86 2370.58C418.35 2369.74 417.43 2368 416.24 2368.22C416.09 2367.92 415.74 2367.51 416.38 2367.44C418.92 2368.66 416.2 2365.37 417.2 2364.19C418.63 2365.38 419.87 2368.36 420.9 2370.01C421.33 2369.33 420.56 2366.11 421.22 2364.94C422.07 2365.85 422.77 2368.7 423.28 2369.54C424.08 2368.7 426.05 2367.33 426.95 2366.36C427.24 2367.21 425 2370.43 424.38 2370.93C428.5 2370.23 429.32 2369.44 431.46 2367.56C432.57 2365.87 433.5 2365.5 435.01 2363.36C434.94 2362.6 435.75 2361.33 435.86 2360.51C433.53 2359.61 431.91 2359.89 431.06 2360.04C430.74 2360.08 429.49 2360.64 428.48 2361.55C427.66 2362.52 426.65 2363.63 426.35 2364.29C426.3 2364.46 426.26 2364.51 426.29 2364.44C426.3 2364.4 426.34 2364.34 426.35 2364.29C426.72 2363.39 428.22 2359.09 427.01 2357.59C426.6 2355.82 424.23 2353.83 422.1 2353.62C421.7 2354.1 418.95 2354.69 417.82 2356.77C416.56 2358.76 418.76 2361.86 418.61 2363.05C415.63 2359.25 412.87 2358.95 409.07 2360.73C409.55 2363.49 410.5 2364.23 410.86 2364.94C411.92 2366.98 412.45 2366.81 413.64 2368.05M446.69 2413.8C447.05 2411.92 448.27 2409.95 447.4 2408.06C446.07 2408.11 445.53 2408.19 444.04 2408.48C443.05 2410.87 443.39 2413.66 443.62 2416.39C441.89 2420.5 443.31 2425.83 442.74 2430.05C443.5 2432.71 441.94 2434.68 443.47 2437.27C444.4 2437.79 445.04 2438.08 446.33 2437.88C446.66 2433.19 444.48 2428.33 446.14 2423.94C446.57 2422.34 445.44 2420.76 446.34 2419.2C445.59 2417.37 447.86 2415.9 446.69 2413.8M318.32 2391.45C317.1 2389.4 315.84 2388.06 313.37 2387.32C314.54 2387.13 319.9 2390.31 322 2383.36C317.39 2375.97 314.55 2380.54 312.32 2379.84C315.48 2379.1 315.69 2376.66 315.64 2375.57C315.58 2374.58 314.3 2371.88 312.34 2370.74C310.15 2372.34 308.67 2373.6 307.73 2376.2C307.06 2377.69 307 2380.32 306.18 2382.23C306.73 2382.42 310.06 2380.51 310.06 2380.51C309.6 2380.91 309.09 2381.72 309.78 2382.97C309.78 2382.97 307.49 2384.2 307.76 2383.65C307.45 2384.27 309.05 2385.14 312.11 2385.59C310.33 2386.5 307.47 2386.26 308.28 2387.01C309.81 2387.83 310.84 2388.99 310.84 2388.99C309.86 2388.94 307.09 2387.92 306.77 2387.77C310.43 2392 312.57 2395.37 317.44 2396.21C318.57 2395.88 318.14 2392.43 318.32 2391.45M290 2362.62C290.36 2361.92 291.3 2361.16 291.78 2358.4C287.98 2356.63 285.2 2356.95 282.26 2360.75C282.09 2359.58 284.28 2356.46 283.01 2354.48C281.87 2352.41 279.12 2351.83 278.72 2351.34C276.59 2351.56 274.22 2353.56 273.83 2355.33C272.63 2356.85 274.13 2361.14 274.5 2362.04C274.52 2362.09 274.56 2362.15 274.57 2362.19C274.59 2362.26 274.56 2362.19 274.5 2362.04C274.22 2361.36 273.2 2360.27 272.38 2359.32C271.35 2358.4 270.11 2357.84 269.78 2357.81C268.94 2357.65 267.31 2357.36 264.99 2358.3C265.11 2359.11 265.92 2360.39 265.85 2361.14C267.38 2363.29 268.3 2363.63 269.42 2365.33C271.57 2367.2 272.4 2367.98 276.51 2368.66C275.89 2368.18 273.63 2364.96 273.92 2364.1C274.83 2365.06 276.81 2366.44 277.61 2367.27C278.13 2366.44 278.79 2363.58 279.64 2362.66C280.31 2363.82 279.55 2367.05 279.99 2367.73C281.01 2366.07 282.25 2363.08 283.67 2361.9C284.66 2363.07 281.97 2366.37 284.48 2365.15C285.14 2365.22 284.78 2365.62 284.64 2365.92C283.45 2365.72 282.53 2367.46 282.03 2368.29C284.39 2369.05 285.6 2366.92 287.24 2365.75C288.42 2364.5 288.95 2364.68 290 2362.62M296.86 2368.27C295.44 2372.22 290.32 2374.32 288.09 2378.64C286.94 2377.88 287.18 2381.53 285.21 2381.58C285.21 2382.9 283.89 2382.9 283.36 2384.06C280.77 2380.77 281.84 2377.24 281.66 2372.83C280.84 2371.99 280.05 2369.63 278.69 2371.47C279.13 2372.83 278.17 2376.38 278.54 2378.6C278.29 2382.86 283.35 2389.44 277.72 2392.26C276.94 2395.06 275.97 2397.51 274.16 2399.33C272.5 2404.9 268.42 2410.28 267.75 2417.03C267.01 2419.28 266.24 2421.95 265.49 2424.43C266.2 2425.14 266.2 2426.46 266.09 2427.65C268.86 2426.13 268.87 2423.28 269.78 2420.28C271.02 2419.94 271.08 2417.96 271.21 2416.44C273.51 2413.78 273.66 2409.38 275.79 2406.28C275.77 2402.53 278.84 2399.94 279.24 2396.56C281.28 2394.43 282.11 2389.78 285.58 2388.97C292.36 2389.42 297.82 2387.14 304.55 2386.81C304.84 2385.86 305.76 2385.37 305.3 2384.24C304.1 2382.94 302.46 2384 301.04 2383.9C301.14 2384.12 300.91 2384.32 300.79 2384.42C296.02 2384.89 291.45 2385.72 286.71 2385.88C286.17 2384.41 288.91 2384.51 288.3 2382.6C292.39 2378.32 296.68 2373.08 301 2368.61C302.03 2368.16 302.46 2366.87 302.87 2365.9C300.68 2362 298.88 2367.79 296.86 2368.27M317.94 2364.52C316.64 2362.89 313.56 2361.1 310.5 2361.5C311.78 2360.95 314.6 2361.72 316.33 2357.78C317.19 2356.19 315.95 2353.89 316.22 2352.79C307.18 2348.47 308.75 2354.39 306.53 2356.06C307.82 2350.74 304.08 2349.6 301.2 2349.12C298.86 2352.74 299.62 2356.91 300.95 2360.16C302.25 2360.26 303.2 2358.37 304.35 2359.11C302.4 2363.19 307.92 2360.48 307.89 2360.5C308.58 2361.34 303.11 2364.49 307.88 2363.3C304.5 2365.06 305.3 2366.06 305.2 2365.78C307.85 2369.52 312.63 2367.5 316.67 2367.84C317.52 2366.92 319.91 2365.81 317.94 2364.52M246.5 2408.2C249.27 2409.08 253.61 2409.84 255.97 2409.15C256.52 2407.88 252.26 2408.78 250.72 2406.89C251.06 2406.8 257.21 2407.49 256.24 2405.98C256.15 2405.65 250.54 2402.47 250.68 2402.15C252.47 2401.86 255.25 2402.72 257.8 2405.1C258.39 2403.4 259.04 2403.31 260.55 2400.96C261.6 2399.64 262.07 2403.15 261 2405.34C261.84 2404.9 263.13 2404.89 263.64 2404.19C264.63 2405.47 260.27 2406.44 262.03 2407.57C264.29 2406.22 265.13 2404.76 266.6 2404.22C268.25 2400.27 269.5 2401.3 268.38 2395.98C268.81 2397.16 270.45 2389.96 267.43 2390.63C265.96 2391.11 261.27 2392.92 260.88 2393.68C260.1 2395.27 259.41 2395.51 259.09 2398.88C259.17 2393.57 259.56 2390.45 251.1 2388.8C247.93 2391.66 247.38 2394.92 247.49 2396.3C248.48 2398.91 249.62 2397.72 251.41 2399.72C248.06 2398.41 243.4 2399.8 240.18 2402.33C240.63 2406 244.44 2407.04 246.5 2408.2M269.16 2428.48C268.26 2428.61 267.48 2430.1 267.07 2431.15C267.06 2432.57 266.17 2435.26 268.7 2433.94C273.58 2426.76 279.83 2419.04 287.61 2415.31C288.16 2413.91 287.2 2413.61 286.85 2412.58C286.55 2413.55 285.2 2412.56 284.74 2412.85C276.99 2416.16 275.13 2422.71 269.25 2427.38C269.21 2427.82 269.84 2428.21 269.16 2428.48M288.81 2411.7C290.93 2411.43 294.29 2410.92 293.33 2411.83C292 2413.37 287.61 2414.34 289.8 2415.73C290.46 2415.58 291.96 2417.43 292.02 2417.98C290.81 2418.1 289.11 2416.01 287.63 2416.66C290.21 2422.69 294.17 2423.88 300.15 2425.91C301.18 2425.34 303.07 2421.61 300.98 2418.73C299.98 2417.48 297.02 2416.7 294.92 2415.84C303.04 2417.07 304.83 2415.28 306.86 2409.44C307.8 2407.33 303.29 2404.18 300.69 2404.09C297.4 2403.96 297.11 2405.86 295.23 2406.87C296.78 2403.08 294.72 2398.23 292.56 2396.54C292.56 2396.54 291.59 2396.2 289.32 2399.5C287.82 2401.92 286.82 2404.02 286.48 2408.1C285.21 2412.82 288.37 2405.62 289.02 2408.21C289.67 2408.47 292.29 2405.29 292.64 2406.3C291.81 2407.01 289.24 2410.63 288.81 2411.7M259.03 2421.74C260.04 2423.22 259.02 2424.88 259.57 2426.46C261.54 2430.72 259.7 2435.71 260.38 2440.36C261.66 2440.5 262.28 2440.15 263.18 2439.57C264.53 2436.87 262.82 2435.01 263.4 2432.31C262.53 2428.14 263.57 2422.72 261.55 2418.75C261.57 2416.01 261.72 2413.21 260.56 2410.87C259.06 2410.7 258.53 2410.66 257.19 2410.72C256.45 2412.65 257.82 2414.53 258.29 2416.38C257.28 2418.55 259.65 2419.88 259.03 2421.74M319.24 2332.02C319.35 2334.05 320.14 2336.19 321.94 2337.77C325.54 2338.77 328.8 2337.32 331.61 2335.86C331.16 2334.5 329.02 2334.74 327.89 2333.93C328.23 2331.81 331.04 2334.74 332.73 2333.37C330.26 2331.33 328.34 2327.76 324.07 2328.32C321.72 2328.32 321.26 2331.24 319.24 2332.02M329.81 2327.76C331.27 2329.56 332.17 2331.91 334.3 2333.16C336 2333.37 334.41 2331.12 335.66 2331.02C336.44 2331.46 336.55 2332.25 337.01 2332.93C338.91 2332.93 337.68 2330.78 339.25 2330.46C340.38 2328.44 340.49 2325.73 339.25 2323.7C337.23 2323.49 335.55 2320.9 332.96 2321.24C331.94 2323.7 328.46 2323.6 329.81 2327.76M339.48 2332.93C343.19 2331.91 339.14 2335.86 340.27 2336.08C337.45 2337.77 340.83 2339.57 341.95 2340.69C339.92 2343.16 339.25 2338.33 336.77 2339.11C335.66 2342.04 337.34 2344.62 339.48 2346.66C342.52 2348.33 346.23 2347.09 348.92 2345.53C349.6 2343.5 348.81 2340.69 348.14 2338.55C347.18 2336.52 342.85 2336.52 342.07 2335.29C342.62 2334.83 346.9 2335.62 347.58 2335.62C349.94 2333.61 351.97 2331.69 351.06 2328.32C349.38 2326.98 347.13 2324.26 344.31 2325.29C341.16 2326.17 340.72 2330.22 339.48 2332.93M333.86 2338.55C335.09 2339.11 336.56 2339.04 337.57 2337.77C338.58 2336.5 336.99 2334.96 336 2334.5C335 2334.05 333.34 2334.96 332.96 2336.08C332.57 2337.2 333.18 2338.1 333.86 2338.55M332.5 2338.33C332.4 2337.09 331.04 2337.54 330.26 2337.42C327.89 2339.44 325.08 2339.89 324.07 2343.72C324.13 2343.72 324.58 2343.72 324.63 2343.72C323.4 2345.62 324.53 2348.56 325.76 2350.47C329.14 2350.47 332.96 2349.8 335.2 2346.66C335.88 2345.62 336 2343.28 335.2 2342.38C334.3 2336.86 332.73 2343.5 330.26 2342.82C329.92 2340.91 332.28 2340 332.5 2338.33M478.3 2441.18C478.3 2511.82 421.02 2569.11 350.37 2569.11C279.72 2569.11 222.46 2511.82 222.46 2441.18C222.46 2370.52 279.72 2313.26 350.37 2313.26C421.02 2313.26 478.3 2370.52 478.3 2441.18"
              id="a1EDzmkbaF"></path>
        <path d="M342.89 2481.04C343.62 2480.36 344.03 2479.98 344.11 2479.9C344.05 2449.19 344.29 2402.91 344.99 2400.81C344.87 2400.76 343.97 2400.37 343.86 2400.32C342.87 2402.52 342.86 2468.11 342.89 2481.04"
              id="e1P9zzHAFr"></path>
        <path d="M353.81 2479.95C354.5 2480.47 354.88 2480.75 354.95 2480.81C356.12 2454.16 358.44 2402.58 358.6 2401.29C358.48 2401.27 357.53 2401.09 357.41 2401.06C357.21 2402.03 354.16 2471.97 353.81 2479.95"
              id="bUy1USp6B"></path>
        <path d="M573.47 2421.44C573.47 2415.68 570.51 2415.6 567.31 2415.6C567.24 2415.6 566.92 2415.6 566.35 2415.6C566.35 2414.16 566.35 2413.36 566.35 2413.2C569.79 2413.2 574.03 2413.52 579.07 2413.52C583.87 2413.52 587.87 2413.2 591.07 2413.2C591.07 2413.36 591.07 2414.16 591.07 2415.6C590.49 2415.6 590.17 2415.6 590.11 2415.6C586.91 2415.6 583.71 2415.68 583.71 2421.44C583.71 2424.2 583.71 2446.28 583.71 2449.04C583.71 2459.2 587.47 2466.24 598.91 2466.24C609.47 2466.24 614.11 2459.52 614.11 2448.72C614.11 2445.99 614.11 2424.17 614.11 2421.44C614.11 2415.68 611.07 2415.6 608.35 2415.6C608.24 2415.6 607.71 2415.6 606.75 2415.6C606.75 2414.16 606.75 2413.36 606.75 2413.2C609.95 2413.2 613.23 2413.52 616.43 2413.52C619.55 2413.52 622.59 2413.2 625.71 2413.2C625.71 2413.36 625.71 2414.16 625.71 2415.6C624.7 2415.6 624.14 2415.6 624.03 2415.6C621.87 2415.6 618.91 2415.68 618.91 2421.44C618.91 2423.99 618.91 2444.41 618.91 2446.96C618.91 2465.04 609.31 2470.24 597.39 2470.24C582.03 2470.24 573.47 2464.64 573.47 2450.32C573.47 2444.55 573.47 2427.22 573.47 2421.44Z"
              id="h2XgYagC6O"></path>
        <path d="M665.39 2425.04C664.83 2419.84 661.47 2414.88 655.95 2414.88C649.63 2414.88 646.11 2418.64 646.11 2424.96C646.11 2438.24 670.11 2434.24 670.11 2453.44C670.11 2464.48 660.99 2470.24 650.75 2470.24C646.27 2470.24 641.95 2468.64 638.03 2466.64C637.63 2462.56 637.07 2458.56 636.67 2454.48C636.89 2454.43 638.68 2454.05 638.91 2454C639.87 2460.8 643.71 2466.72 651.31 2466.72C656.75 2466.72 661.15 2463.28 661.15 2457.6C661.15 2443.44 637.63 2447.84 637.63 2428.56C637.63 2418.16 644.99 2412 655.31 2412C657.55 2412 664.35 2412.88 666.83 2413.2C666.83 2416.96 667.15 2420.8 667.63 2424.64C667.18 2424.72 665.84 2424.96 665.39 2425.04Z"
              id="a1AuPNHBge"></path>
        <path d="M732.67 2453.28L732.83 2453.12C732.83 2435.12 732.83 2425.12 732.83 2423.12C732.83 2416.56 728.27 2415.6 725.87 2415.6C725.75 2415.6 725.16 2415.6 724.11 2415.6C724.11 2414.16 724.11 2413.36 724.11 2413.2C727.87 2413.2 731.55 2413.52 735.31 2413.52C738.59 2413.52 741.87 2413.2 745.15 2413.2C745.15 2413.36 745.15 2414.16 745.15 2415.6C744.43 2415.6 744.03 2415.6 743.95 2415.6C740.59 2415.6 736.83 2416.24 736.83 2425.76C736.83 2429.4 736.83 2458.52 736.83 2462.16C736.83 2464.96 736.91 2467.76 737.31 2470.24C737.1 2470.24 736.09 2470.24 734.27 2470.24L693.07 2424.32C693.07 2444.1 693.07 2455.08 693.07 2457.28C693.07 2464.24 694.43 2466.64 700.59 2466.64C700.68 2466.64 701.13 2466.64 701.95 2466.64C701.95 2468.08 701.95 2468.88 701.95 2469.04C698.51 2469.04 695.07 2468.72 691.63 2468.72C688.03 2468.72 684.35 2469.04 680.75 2469.04C680.75 2468.88 680.75 2468.08 680.75 2466.64C681.42 2466.64 681.79 2466.64 681.87 2466.64C687.39 2466.64 689.07 2462.88 689.07 2456.48C689.07 2453.11 689.07 2426.17 689.07 2422.8C689.07 2418.32 685.39 2415.6 681.79 2415.6C681.72 2415.6 681.37 2415.6 680.75 2415.6C680.75 2414.16 680.75 2413.36 680.75 2413.2C683.79 2413.2 686.91 2413.52 689.95 2413.52C692.35 2413.52 694.67 2413.2 697.07 2413.2C701.81 2418.55 713.68 2431.91 732.67 2453.28Z"
              id="a3AASZAZaC"></path>
        <path d="M771.31 2437.68C778.03 2437.68 781.76 2437.68 782.51 2437.68C786.43 2437.68 787.63 2435.2 787.63 2431.2C787.87 2431.2 789.79 2431.2 790.03 2431.2C789.87 2434.08 789.71 2436.88 789.71 2439.76C789.71 2443.04 789.79 2446.24 790.03 2449.52C789.79 2449.52 787.87 2449.52 787.63 2449.52C787.63 2445.04 786.35 2441.68 781.23 2441.68C780.57 2441.68 777.26 2441.68 771.31 2441.68C771.31 2453.92 771.31 2460.72 771.31 2462.08C771.31 2466.56 774.99 2466.64 778.99 2466.64C779.06 2466.64 779.4 2466.64 780.03 2466.64C780.03 2468.08 780.03 2468.88 780.03 2469.04C776.27 2469.04 770.83 2468.72 766.27 2468.72C762.11 2468.72 757.23 2469.04 754.03 2469.04C754.03 2468.88 754.03 2468.08 754.03 2466.64C754.7 2466.64 755.07 2466.64 755.15 2466.64C758.03 2466.64 761.07 2466.24 761.07 2462.08C761.07 2457.89 761.07 2424.35 761.07 2420.16C761.07 2416 758.03 2415.6 755.15 2415.6C755.07 2415.6 754.7 2415.6 754.03 2415.6C754.03 2414.16 754.03 2413.36 754.03 2413.2C758.91 2413.2 767.23 2413.52 773.95 2413.52C780.67 2413.52 788.99 2413.2 794.43 2413.2C794.27 2416.64 794.35 2421.92 794.59 2425.44C794.35 2425.51 792.43 2426.02 792.19 2426.08C791.71 2420.56 790.43 2416.72 784.11 2416.72C783.25 2416.72 778.99 2416.72 771.31 2416.72L771.31 2437.68Z"
              id="f2nbEoJOmW"></path>
        <path d="M529.54 2348.21L529.54 2538.88" id="h1D80C2xU4"></path>
    </defs>
    <g>
        <g>
            <use xlink:href="#d2YAMeL1Od" opacity="1" fill="#ffffff" fill-opacity="1"></use>
            <g>
                <use xlink:href="#d2YAMeL1Od" opacity="1" fill-opacity="0" stroke="#000000" stroke-width="1"
                     stroke-opacity="0"></use>
            </g>
        </g>
        <g>
            <use xlink:href="#d1oaNvwmU" opacity="1" fill="#000000" fill-opacity="0"></use>
            <g>
                <use xlink:href="#d1oaNvwmU" opacity="1" fill-opacity="0" stroke="#ffffff" stroke-width="7.17"
                     stroke-opacity="1"></use>
            </g>
        </g>
        <g>
            <use xlink:href="#acFN4Nsxk" opacity="1" fill="#ffffff" fill-opacity="1"></use>
            <g>
                <use xlink:href="#acFN4Nsxk" opacity="1" fill-opacity="0" stroke="#000000" stroke-width="1"
                     stroke-opacity="0"></use>
            </g>
        </g>
        <g>
            <use xlink:href="#c4i8IpuqHy" opacity="1" fill="#000000" fill-opacity="0"></use>
            <g>
                <use xlink:href="#c4i8IpuqHy" opacity="1" fill-opacity="0" stroke="#92278e" stroke-width="2.74"
                     stroke-opacity="1"></use>
            </g>
        </g>
        <g>
            <use xlink:href="#a1EDzmkbaF" opacity="1" fill="#92278e" fill-opacity="1"></use>
            <g>
                <use xlink:href="#a1EDzmkbaF" opacity="1" fill-opacity="0" stroke="#000000" stroke-width="1"
                     stroke-opacity="0"></use>
            </g>
        </g>
        <g>
            <use xlink:href="#e1P9zzHAFr" opacity="1" fill="#92278e" fill-opacity="1"></use>
            <g>
                <use xlink:href="#e1P9zzHAFr" opacity="1" fill-opacity="0" stroke="#000000" stroke-width="1"
                     stroke-opacity="0"></use>
            </g>
        </g>
        <g>
            <use xlink:href="#bUy1USp6B" opacity="1" fill="#92278e" fill-opacity="1"></use>
            <g>
                <use xlink:href="#bUy1USp6B" opacity="1" fill-opacity="0" stroke="#000000" stroke-width="1"
                     stroke-opacity="0"></use>
            </g>
        </g>
        <g>
            <use xlink:href="#h2XgYagC6O" opacity="1" fill="#92278e" fill-opacity="1"></use>
            <g>
                <use xlink:href="#h2XgYagC6O" opacity="1" fill-opacity="0" stroke="#000000" stroke-width="1"
                     stroke-opacity="0"></use>
            </g>
        </g>
        <g>
            <use xlink:href="#a1AuPNHBge" opacity="1" fill="#92278e" fill-opacity="1"></use>
            <g>
                <use xlink:href="#a1AuPNHBge" opacity="1" fill-opacity="0" stroke="#000000" stroke-width="1"
                     stroke-opacity="0"></use>
            </g>
        </g>
        <g>
            <use xlink:href="#a3AASZAZaC" opacity="1" fill="#92278e" fill-opacity="1"></use>
            <g>
                <use xlink:href="#a3AASZAZaC" opacity="1" fill-opacity="0" stroke="#000000" stroke-width="1"
                     stroke-opacity="0"></use>
            </g>
        </g>
        <g>
            <use xlink:href="#f2nbEoJOmW" opacity="1" fill="#92278e" fill-opacity="1"></use>
            <g>
                <use xlink:href="#f2nbEoJOmW" opacity="1" fill-opacity="0" stroke="#000000" stroke-width="1"
                     stroke-opacity="0"></use>
            </g>
        </g>
        <g>
            <use xlink:href="#h1D80C2xU4" opacity="1" fill="#000000" fill-opacity="0"></use>
            <g>
                <use xlink:href="#h1D80C2xU4" opacity="1" fill-opacity="0" stroke="#92278e" stroke-width="2.25"
                     stroke-opacity="1"></use>
            </g>
        </g>
    </g>
</svg>